<?xml version="1.0" encoding="utf-8"?>
<!-- Generator: Adobe Illustrator 26.0.1, SVG Export Plug-In . SVG Version: 6.00 Build 0)  -->
<svg version="1.1" id="Lager_1" xmlns="http://www.w3.org/2000/svg" xmlns:xlink="http://www.w3.org/1999/xlink" x="0px" y="0px"
	 viewBox="0 0 24 24" style="enable-background:new 0 0 24 24;" xml:space="preserve">
<style type="text/css">
	.st0{fill:url(#SVGID_1_);}
	.st1{fill:none;}
	.st2{fill:#FFFFFF;}
</style>
<linearGradient id="SVGID_1_" gradientUnits="userSpaceOnUse" x1="1.0407" y1="21.1959" x2="22.9593" y2="2.8041">
	<stop  offset="1.118836e-07" style="stop-color:#EC8A0C"/>
	<stop  offset="1" style="stop-color:#E7551F"/>
</linearGradient>
<path class="st0" d="M19.6,23.2H4.4c-2,0-3.7-1.6-3.7-3.7V4.4c0-2,1.6-3.7,3.7-3.7h15.1c2,0,3.7,1.6,3.7,3.7v15.1
	C23.2,21.6,21.6,23.2,19.6,23.2z"/>
<g>
	<path class="st1" d="M0,0h24v24H0V0z"/>
</g>
<g>
	<path class="st2" d="M18.6,17.6V6.4c0-1.5-1.3-2.8-2.8-2.8H8.2c-1.5,0-2.8,1.3-2.8,2.8v11.3c0,0.5-0.4,0.9-0.9,0.9h0
		c-0.5,0-0.9,0.4-0.9,0.9v0c0,0.5,0.4,0.9,0.9,0.9h15c0.5,0,0.9-0.4,0.9-0.9v0c0-0.5-0.4-0.9-0.9-0.9h0C19,18.6,18.6,18.1,18.6,17.6
		z M15.8,18.6H8.2c-0.5,0-0.9-0.4-0.9-0.9V6.4c0-0.5,0.4-0.9,0.9-0.9h7.5c0.5,0,0.9,0.4,0.9,0.9v11.3C16.7,18.1,16.3,18.6,15.8,18.6
		z M13.9,11.1L13.9,11.1c0.5,0,0.9,0.4,0.9,0.9v0c0,0.5-0.4,0.9-0.9,0.9h0c-0.5,0-0.9-0.4-0.9-0.9v0C12.9,11.5,13.4,11.1,13.9,11.1z
		"/>
</g>
</svg>
